<svg xmlns="http://www.w3.org/2000/svg" xmlns:xlink="http://www.w3.org/1999/xlink" fill="none" version="1.1" width="57.712890625" height="55.46600341796875" viewBox="0 0 57.712890625 55.46600341796875"><g><g><g><g><path d="M42.26492565917969,52.23699963378906C42.26492565917969,52.23699963378906,17.66093565917969,52.23699963378906,17.66093565917969,52.23699963378906C16.840865659179688,52.23699963378906,16.176925659179688,51.57199963378906,16.176925659179688,50.75299963378906C16.176925659179688,49.932999633789066,16.840865659179688,49.268999633789065,17.66093565917969,49.268999633789065C17.66093565917969,49.268999633789065,42.26492565917969,49.268999633789065,42.26492565917969,49.268999633789065C43.08492565917969,49.268999633789065,43.74892565917969,49.932999633789066,43.74892565917969,50.75299963378906C43.74892565917969,51.57199963378906,43.08492565917969,52.23699963378906,42.26492565917969,52.23699963378906C42.26492565917969,52.23699963378906,42.26492565917969,52.23699963378906,42.26492565917969,52.23699963378906C42.26492565917969,52.23699963378906,42.26492565917969,52.23699963378906,42.26492565917969,52.23699963378906ZM33.77092565917969,41.551999633789066C33.77092565917969,41.551999633789066,18.847945659179686,41.551999633789066,18.847945659179686,41.551999633789066C18.02787565917969,41.551999633789066,17.36393565917969,40.887999633789065,17.36393565917969,40.06798963378906C17.36393565917969,39.24900863378906,18.02787565917969,38.58399963378906,18.847945659179686,38.58399963378906C18.847945659179686,38.58399963378906,33.77092565917969,38.58399963378906,33.77092565917969,38.58399963378906C34.30092565917968,38.58399963378906,34.79092565917969,38.867004633789065,35.05592565917969,39.326003633789064C35.32192565917968,39.78499963378906,35.32192565917968,40.350999633789066,35.05592565917969,40.80999963378906C34.79092565917969,41.268999633789065,34.30092565917968,41.551999633789066,33.77092565917969,41.551999633789066C33.77092565917969,41.551999633789066,33.77092565917969,41.551999633789066,33.77092565917969,41.551999633789066C33.77092565917969,41.551999633789066,33.77092565917969,41.551999633789066,33.77092565917969,41.551999633789066Z" fill="#FFFFFF" fill-opacity="1"/></g></g><g><g><path d="M45.55388298217773,55.46603218434453C45.169962982177736,55.45703218434453,44.802902982177734,55.30003218434453,44.53288298217773,55.027032184344534C44.53288298217773,55.027032184344534,41.374922982177736,51.86903218434453,41.374922982177736,51.86903218434453C40.81291098217773,51.286032184344535,40.822920982177735,50.36003218434453,41.39591898217773,49.789032184344535C41.968912982177734,49.21703218434453,42.89494298217773,49.21003218434453,43.475872982177734,49.774032184344534C43.475872982177734,49.774032184344534,45.58390298217773,51.881032184344534,45.58390298217773,51.881032184344534C45.58390298217773,51.881032184344534,54.13091298217773,43.33303218434453,54.13091298217773,43.33303218434453C54.13091298217773,43.33303218434453,42.49089298217773,31.66299218434453,42.49089298217773,31.66299218434453C41.92887798217773,31.08000218434453,41.93791098217773,30.15400218434453,42.51188298217773,29.58300818434453C43.08488298217773,29.01100118434453,44.010912982177736,29.003998184344532,44.59196298217773,29.56700118434453C44.59196298217773,29.56700118434453,57.276912982177734,42.253032184344534,57.276912982177734,42.253032184344534C57.55591298217773,42.53103218434453,57.712912982177734,42.90903218434453,57.712912982177734,43.30303218434453C57.712912982177734,43.69703218434453,57.55591298217773,44.07603218434453,57.276912982177734,44.35403218434453C57.276912982177734,44.35403218434453,46.59196298217773,55.039032184344535,46.59196298217773,55.039032184344535C46.31596298217774,55.31203218434453,45.94291298217773,55.46503218434453,45.55388298217773,55.46603218434453C45.55388298217773,55.46603218434453,45.55388298217773,55.46603218434453,45.55388298217773,55.46603218434453C45.55388298217773,55.46603218434453,45.55388298217773,55.46603218434453,45.55388298217773,55.46603218434453Z" fill="#FFFFFF" fill-opacity="1"/></g></g><g><g><path d="M34.2809,41.55200561523438C34.2809,41.55200561523438,28.28,41.55200561523438,28.28,41.55200561523438C24.8379,41.55200561523438,22.0479,38.761005615234374,22.0479,35.31899561523437C22.0479,31.876995615234375,24.8379,29.087005615234375,28.28,29.087005615234375C28.28,29.087005615234375,43.1199,29.087005615234375,43.1199,29.087005615234375C43.9399,29.087005615234375,44.6039,29.751006615234374,44.6039,30.570995615234374C44.6039,31.389995615234376,43.9399,32.054005615234374,43.1199,32.05500561523438C43.1199,32.05500561523438,28.28,32.05500561523438,28.28,32.05500561523438C26.477,32.05500561523438,25.0149,33.51600561523438,25.0149,35.31899561523437C25.0149,37.121995615234376,26.477,38.58399561523437,28.28,38.58399561523437C28.28,38.58399561523437,34.2809,38.58399561523437,34.2809,38.58399561523437C35.1009,38.58399561523437,35.7649,39.249005615234374,35.7649,40.06800561523438C35.7649,40.88800561523438,35.1009,41.55200561523438,34.2809,41.55200561523438C34.2809,41.55200561523438,34.2809,41.55200561523438,34.2809,41.55200561523438C34.2809,41.55200561523438,34.2809,41.55200561523438,34.2809,41.55200561523438ZM17.4169,52.237005615234374C17.133,52.236005615234376,16.8549,52.154005615234375,16.6159,52.00000561523437C16.6159,52.00000561523437,2.65996,42.995005615234376,2.65996,42.995005615234376C2.63091,42.97800561523437,2.60295,42.95800561523438,2.57695,42.935005615234374C-0.251053,40.800005615234376,-0.841141,36.78900561523437,1.25395,33.93000561523438C1.25395,33.93000561523438,1.34892,33.81199561523437,1.34892,33.81199561523437C3.33696,31.436995615234373,6.47697,30.813995615234376,9.53996,32.15600561523438C9.6209,32.19000561523438,9.6989,32.231995615234375,9.7719,32.27999561523438C9.7719,32.27999561523438,19.353,38.727005615234376,19.353,38.727005615234376C20.0329,39.18600561523438,20.212,40.10900561523437,19.753,40.78900561523437C19.2939,41.47000561523437,18.3709,41.64900561523437,17.6899,41.19000561523438C17.6899,41.19000561523438,8.23393,34.826995615234374,8.23393,34.826995615234374C7.29692,34.43499561523438,5.21892,33.889005615234375,3.66386,35.66999561523438C2.52995,37.39700561523438,2.79094,39.368005615234374,4.31096,40.53100561523438C4.31096,40.53100561523438,18.2249,49.477005615234376,18.2249,49.477005615234376C18.8079,49.822005615234374,19.0839,50.51900561523438,18.8929,51.17000561523437C18.7029,51.82100561523438,18.0949,52.26000561523438,17.4169,52.237005615234374C17.4169,52.237005615234374,17.4169,52.237005615234374,17.4169,52.237005615234374C17.4169,52.237005615234374,17.4169,52.237005615234374,17.4169,52.237005615234374Z" fill="#FFFFFF" fill-opacity="1"/></g></g></g><g><g><g><path d="M47.0438212890625,15.434C45.9989212890625,15.434,45.1509212890625,14.587,45.1509212890625,13.542C45.1509212890625,13.542,45.1509212890625,7.093,45.1509212890625,7.093C45.1509212890625,5.269,43.6668212890625,3.785,41.8429212890625,3.785C41.8429212890625,3.785,10.8358112890625,3.785,10.8358112890625,3.785C9.011841289062499,3.785,7.5278312890625,5.269,7.5278312890625,7.093C7.5278312890625,7.093,7.5278312890625,8.341,7.5278312890625,8.341C7.5278312890625,10.165,9.011841289062499,11.649,10.8358112890625,11.649C10.8358112890625,11.649,35.3579212890625,11.649,35.3579212890625,11.649C36.4028212890625,11.649,37.2499212890625,12.496,37.2499212890625,13.542C37.2499212890625,14.587,36.4028212890625,15.434,35.3579212890625,15.434C35.3579212890625,15.434,10.8358112890625,15.434,10.8358112890625,15.434C6.9249312890625,15.434,3.7418212890625,12.252,3.7418212890625,8.341C3.7418212890625,8.341,3.7418212890625,7.093,3.7418212890625,7.093C3.7418212890625,3.18201,6.9249312890625,0,10.8358112890625,0C10.8358112890625,0,41.8429212890625,0,41.8429212890625,0C45.7549212890625,0,48.9359212890625,3.18201,48.9359212890625,7.093C48.9359212890625,7.093,48.9359212890625,13.542,48.9359212890625,13.542C48.9359212890625,14.587,48.0888212890625,15.434,47.0438212890625,15.434C47.0438212890625,15.434,47.0438212890625,15.434,47.0438212890625,15.434Z" fill="#FFFFFF" fill-opacity="1"/></g></g><g><g><path d="M36.599884765625,15.43400365234375C36.599884765625,15.43400365234375,14.272824765625,15.43400365234375,14.272824765625,15.43400365234375C13.227904765625,15.43400365234375,12.379882765625,14.58700365234375,12.379882765625,13.54200365234375C12.379882765625,12.496003652343749,13.227904765625,11.649003652343751,14.272824765625,11.649003652343751C14.272824765625,11.649003652343751,36.599884765625,11.649003652343751,36.599884765625,11.649003652343751C37.013884765625,11.649003652343751,37.351884765625,11.31199365234375,37.351884765625,10.89700365234375C37.351884765625,10.12199365234375,36.719884765625,9.49099365234375,35.944784765625,9.49099365234375C35.944784765625,9.49099365234375,13.573854765625,9.49099365234375,13.573854765625,9.49099365234375C12.528930765625,9.49099365234375,11.681884765625,8.64300365234375,11.681884765625,7.59800365234375C11.681884765625,6.5529936523437495,12.528930765625,5.70599365234375,13.573854765625,5.70599365234375C13.573854765625,5.70599365234375,35.944784765625,5.70599365234375,35.944784765625,5.70599365234375C38.807884765625005,5.70599365234375,41.136884765625,8.03399365234375,41.136884765625,10.89700365234375C41.136884765625,13.399003652343751,39.100784765625,15.43400365234375,36.599884765625,15.43400365234375C36.599884765625,15.43400365234375,36.599884765625,15.43400365234375,36.599884765625,15.43400365234375Z" fill="#FFFFFF" fill-opacity="1"/></g></g><g><g><path d="M41.843919921875,27.08300207519531C41.843919921875,27.08300207519531,10.835819921875,27.08300207519531,10.835819921875,27.08300207519531C6.924929921875,27.08300207519531,3.742919921875,23.901002075195315,3.742919921875,19.990002075195314C3.742919921875,19.990002075195314,3.742919921875,18.742002075195312,3.742919921875,18.742002075195312C3.742919921875,14.830992075195311,6.924929921875,11.649002075195341,10.834839921875,11.649002075195341C10.834839921875,11.649002075195341,35.802819921875,11.649002075195341,35.802819921875,11.649002075195341C36.847919921875,11.649002075195341,37.694819921875,12.496002075195312,37.694819921875,13.542012075195313C37.694819921875,14.587002075195313,36.847919921875,15.434002075195313,35.802819921875,15.434002075195313C35.802819921875,15.434002075195313,10.834839921875,15.434002075195313,10.834839921875,15.434002075195313C9.011839921875,15.434002075195313,7.527829921875,16.91800207519531,7.527829921875,18.742002075195312C7.527829921875,18.742002075195312,7.527829921875,19.990002075195314,7.527829921875,19.990002075195314C7.527829921875,21.81400207519531,9.011839921875,23.298002075195313,10.835819921875,23.298002075195313C10.835819921875,23.298002075195313,41.843919921875,23.298002075195313,41.843919921875,23.298002075195313C43.667819921875,23.298002075195313,45.150919921875,21.81400207519531,45.150919921875,19.990002075195314C45.150919921875,19.990002075195314,45.150919921875,13.542012075195313,45.150919921875,13.542012075195313C45.150919921875,12.496002075195312,45.998919921875,11.649002075195341,47.043819921875,11.649002075195341C48.088819921875,11.649002075195341,48.935919921875,12.496002075195312,48.935919921875,13.542012075195313C48.935919921875,13.542012075195313,48.935919921875,19.990002075195314,48.935919921875,19.990002075195314C48.935919921875,23.901002075195315,45.754919921875,27.08300207519531,41.843919921875,27.08300207519531C41.843919921875,27.08300207519531,41.843919921875,27.08300207519531,41.843919921875,27.08300207519531Z" fill="#FFFFFF" fill-opacity="1"/></g></g><g><g><path d="M35.944784765625,21.37800207519531C35.944784765625,21.37800207519531,13.573854765625,21.37800207519531,13.573854765625,21.37800207519531C12.528930765625,21.37800207519531,11.681884765625,20.53100207519531,11.681884765625,19.486012075195312C11.681884765625,18.440002075195313,12.528930765625,17.59300207519531,13.573854765625,17.59300207519531C13.573854765625,17.59300207519531,35.944784765625,17.59300207519531,35.944784765625,17.59300207519531C36.719884765625,17.59300207519531,37.351884765625,16.96200207519531,37.351884765625,16.18600207519531C37.351884765625,15.770992075195313,37.013884765625,15.434002075195313,36.599884765625,15.434002075195313C36.599884765625,15.434002075195313,14.272824765625,15.434002075195313,14.272824765625,15.434002075195313C13.227904765625,15.434002075195313,12.379882765625,14.587002075195313,12.379882765625,13.542012075195313C12.379882765625,12.496002075195312,13.227904765625,11.649002075195341,14.272824765625,11.649002075195341C14.272824765625,11.649002075195341,36.599884765625,11.649002075195341,36.599884765625,11.649002075195341C39.100784765625,11.649002075195341,41.136884765625,13.684002075195313,41.136884765625,16.18600207519531C41.136884765625,19.04899207519531,38.807884765625005,21.37800207519531,35.944784765625,21.37800207519531C35.944784765625,21.37800207519531,35.944784765625,21.37800207519531,35.944784765625,21.37800207519531Z" fill="#FFFFFF" fill-opacity="1"/></g></g></g></g></svg>