<svg xmlns="http://www.w3.org/2000/svg" xmlns:xlink="http://www.w3.org/1999/xlink" fill="none" version="1.1" width="50.9110107421875" height="54.675384521484375" viewBox="0 0 50.9110107421875 54.675384521484375"><g><g><g><g><g><path d="M17.32800708984375,10.1954C17.149047089843748,10.1954,16.96996708984375,10.1954,16.79199708984375,10.1054C16.79199708984375,10.1054,11.879027089843749,7.87237,11.879027089843749,7.87237C11.79003708984375,7.87237,11.61096208984375,7.87237,11.52197308984375,7.78338C11.25402808984375,7.69439,10.98596208984375,7.42639,10.80798308984375,7.15838C10.62902828984375,6.80038,10.62902828984375,6.35437,10.80798308984375,5.99737C10.89697308984375,5.90738,10.89697308984375,5.72839,10.98596208984375,5.63937C10.98596208984375,5.63937,13.130007089843751,0.816372,13.130007089843751,0.816372C13.576047089843751,0.102383,14.29101708984375,-0.16663,15.005007089843751,0.102383C15.36303708984375,0.191372,15.54101708984375,0.459377,15.719967089843749,0.816372C15.80895708984375,1.17337,15.80895708984375,1.53137,15.719967089843749,1.79937C15.719967089843749,1.79937,13.93298708984375,5.90738,13.93298708984375,5.90738C13.93298708984375,5.90738,18.04199708984375,7.78338,18.04199708984375,7.78338C18.40002708984375,7.96139,18.57800708984375,8.14038,18.66699708984375,8.49838C18.756957089843752,8.85537,18.756957089843752,9.21237,18.57800708984375,9.48037C18.30993708984375,9.92736,17.86303708984375,10.1954,17.32800708984375,10.1954C17.32800708984375,10.1954,17.32800708984375,10.1954,17.32800708984375,10.1954C17.32800708984375,10.1954,17.32800708984375,10.1954,17.32800708984375,10.1954Z" fill="#FFFFFF" fill-opacity="1"/></g></g></g><g><g><g><path d="M33.67296904174805,54.67538494873047C33.494999041748045,54.67538494873047,33.31603904174805,54.67538494873047,33.13695904174805,54.58638494873047C32.780029041748044,54.40738494873047,32.600949041748045,54.22936494873047,32.42296904174805,53.871364948730466C32.33300904174805,53.51437494873047,32.33300904174805,53.15737494873047,32.42296904174805,52.88937494873047C32.42296904174805,52.88937494873047,34.29796904174805,48.78039494873047,34.29796904174805,48.78039494873047C34.29796904174805,48.78039494873047,30.279052041748045,46.81536494873047,30.279052041748045,46.81536494873047C30.010985041748047,46.63738494873047,29.743041041748047,46.36938494873047,29.654051941748047,46.10137494873047C29.563964041748047,45.74337494873047,29.563964041748047,45.38638094873047,29.743041041748047,45.11837594873047C30.099975041748046,44.49337594873047,30.814939041748048,44.22536994873047,31.439939041748048,44.49337594873047C31.439939041748048,44.49337594873047,36.26293904174805,46.81536494873047,36.26293904174805,46.81536494873047C36.353029041748044,46.81536494873047,36.53100904174805,46.90539494873047,36.619999041748045,46.90539494873047C36.88793904174805,46.99438494873047,37.156979041748045,47.26238494873047,37.33495904174805,47.53039494873047C37.51403904174805,47.88738494873047,37.51403904174805,48.33437494873047,37.33495904174805,48.69137494873047C37.24596904174805,48.78039494873047,37.156979041748045,48.87038494873047,37.06701904174805,49.048364948730466C37.06701904174805,49.048364948730466,34.833979041748044,53.871364948730466,34.833979041748044,53.871364948730466C34.65600904174805,54.40738494873047,34.208979041748044,54.67538494873047,33.67296904174805,54.67538494873047C33.67296904174805,54.67538494873047,33.67296904174805,54.67538494873047,33.67296904174805,54.67538494873047C33.67296904174805,54.67538494873047,33.67296904174805,54.67538494873047,33.67296904174805,54.67538494873047Z" fill="#FFFFFF" fill-opacity="1"/></g></g></g><g><g><g><path d="M25.188,52.35336837482453C11.343,52.35336837482453,4.54747e-13,40.83136837482452,4.54747e-13,26.629368374824523C4.54747e-13,22.789368374824523,0.803955,19.126368374824523,2.41101,15.643368374824524C2.67896,14.928368374824524,3.48303,14.660368374824523,4.198,15.018368374824524C4.91296,15.286368374824525,5.18005,16.09036837482452,4.823,16.804368374824524C3.39404,19.930368374824525,2.67896,23.235368374824525,2.67896,26.629368374824523C2.67896,39.402368374824526,12.772,49.67336837482453,25.188,49.67336837482453C28.493,49.67336837482453,31.708,48.95936837482452,34.745,47.530368374824526C35.37,47.17336837482453,36.174,47.530368374824526,36.531,48.155368374824526C36.8879,48.780368374824526,36.531,49.58436837482452,35.906,49.942368374824525C32.512,51.549368374824525,28.939,52.35336837482453,25.188,52.35336837482453C25.188,52.35336837482453,25.188,52.35336837482453,25.188,52.35336837482453C25.188,52.35336837482453,25.188,52.35336837482453,25.188,52.35336837482453ZM47.16,38.95536837482452C46.9821,38.95536837482452,46.803,38.95536837482452,46.624,38.866368374824525C45.999,38.509368374824525,45.642,37.70536837482452,45.999,37.08036837482452C47.5179,33.95336837482452,48.2321,30.559368374824523,48.2321,27.076368374824526C48.2321,14.392368374824525,38.139,4.121368374824524,25.724,4.121368374824524C22.062,4.121368374824524,18.578,5.0143683748245245,15.363,6.711388374824524C14.7369,7.068388374824524,13.933,6.800378374824524,13.576,6.175378374824524C13.219,5.550378374824524,13.4869,4.746368374824524,14.1119,4.3893683748245245C17.6849,2.513393374824524,21.704,1.531368374824524,25.724,1.531368374824524C39.568,1.531368374824524,50.911,12.963368374824524,50.911,27.076368374824526C50.911,31.006368374824525,50.0179,34.75736837482452,48.411,38.241368374824525C48.1429,38.68736837482452,47.696,38.95536837482452,47.16,38.95536837482452C47.16,38.95536837482452,47.16,38.95536837482452,47.16,38.95536837482452C47.16,38.95536837482452,47.16,38.95536837482452,47.16,38.95536837482452Z" fill="#FFFFFF" fill-opacity="1"/></g></g></g></g><g><g><g><path d="M42.1119283203125,28.75738671875C41.3280283203125,28.75738671875,40.6930283203125,28.12238671875,40.6930283203125,27.33738671875C40.6930283203125,27.33738671875,40.6930283203125,22.14938671875,40.6930283203125,22.14938671875C40.6930283203125,20.62539671875,39.4530283203125,19.38537671875,37.9289283203125,19.38537671875C37.9289283203125,19.38537671875,12.9820583203125,19.38537671875,12.9820583203125,19.38537671875C11.4580083203125,19.38537671875,10.218018320312499,20.62539671875,10.218018320312499,22.14938671875C10.218018320312499,22.14938671875,10.218018320312499,23.15438671875,10.218018320312499,23.15438671875C10.218018320312499,24.678376718750002,11.4580083203125,25.91839671875,12.9820583203125,25.91839671875C12.9820583203125,25.91839671875,32.710928320312505,25.91839671875,32.710928320312505,25.91839671875C33.4950283203125,25.91839671875,34.130028320312505,26.553386718749998,34.130028320312505,27.33738671875C34.130028320312505,28.12238671875,33.4950283203125,28.75738671875,32.710928320312505,28.75738671875C32.710928320312505,28.75738671875,12.9820583203125,28.75738671875,12.9820583203125,28.75738671875C9.8929483203125,28.75738671875,7.3790283203125,26.24337671875,7.3790283203125,23.15438671875C7.3790283203125,23.15438671875,7.3790283203125,22.14938671875,7.3790283203125,22.14938671875C7.3790283203125,19.06039671875,9.8929483203125,16.546386718750057,12.9820583203125,16.546386718750057C12.9820583203125,16.546386718750057,37.9289283203125,16.546386718750057,37.9289283203125,16.546386718750057C41.0179283203125,16.546386718750057,43.5320283203125,19.06039671875,43.5320283203125,22.14938671875C43.5320283203125,22.14938671875,43.5320283203125,27.33738671875,43.5320283203125,27.33738671875C43.5320283203125,28.12238671875,42.8969283203125,28.75738671875,42.1119283203125,28.75738671875C42.1119283203125,28.75738671875,42.1119283203125,28.75738671875,42.1119283203125,28.75738671875Z" fill="#FFFFFF" fill-opacity="1"/></g></g><g><g><path d="M33.7099912109375,28.757383056640627C33.7099912109375,28.757383056640627,15.7469512109375,28.757383056640627,15.7469512109375,28.757383056640627C14.9630112109375,28.757383056640627,14.3280032109375,28.122373056640626,14.3280032109375,27.337373056640626C14.3280032109375,26.553373056640623,14.9630112109375,25.918393056640625,15.7469512109375,25.918393056640625C15.7469512109375,25.918393056640625,33.7099912109375,25.918393056640625,33.7099912109375,25.918393056640625C34.0999912109375,25.918393056640625,34.4179912109375,25.601383056640625,34.4179912109375,25.210393056640626C34.4179912109375,24.529393056640625,33.8639912109375,23.975373056640624,33.1829912109375,23.975373056640624C33.1829912109375,23.975373056640624,15.1860312109375,23.975373056640624,15.1860312109375,23.975373056640624C14.4010012109375,23.975373056640624,13.7659912109375,23.340393056640625,13.7659912109375,22.556393056640626C13.7659912109375,21.771393056640626,14.4010012109375,21.136383056640625,15.1860312109375,21.136383056640625C15.1860312109375,21.136383056640625,33.1829912109375,21.136383056640625,33.1829912109375,21.136383056640625C35.430091210937505,21.136383056640625,37.2569912109375,22.964383056640624,37.2569912109375,25.210393056640626C37.2569912109375,27.166383056640626,35.6659912109375,28.757383056640627,33.7099912109375,28.757383056640627C33.7099912109375,28.757383056640627,33.7099912109375,28.757383056640627,33.7099912109375,28.757383056640627Z" fill="#FFFFFF" fill-opacity="1"/></g></g><g><g><path d="M37.9289283203125,38.12839599609375C37.9289283203125,38.12839599609375,12.9820583203125,38.12839599609375,12.9820583203125,38.12839599609375C9.8929483203125,38.12839599609375,7.3790283203125,35.61538599609375,7.3790283203125,32.525385996093746C7.3790283203125,32.525385996093746,7.3790283203125,31.52139599609375,7.3790283203125,31.52139599609375C7.3790283203125,28.43237599609375,9.8929483203125,25.91839599609375,12.9820583203125,25.91839599609375C12.9820583203125,25.91839599609375,33.0689283203125,25.91839599609375,33.0689283203125,25.91839599609375C33.853028320312504,25.91839599609375,34.4880283203125,26.55337499609375,34.4880283203125,27.33737599609375C34.4880283203125,28.12237599609375,33.853028320312504,28.75738599609375,33.0689283203125,28.75738599609375C33.0689283203125,28.75738599609375,12.9820583203125,28.75738599609375,12.9820583203125,28.75738599609375C11.4580083203125,28.75738599609375,10.218018320312499,29.99737599609375,10.218018320312499,31.52139599609375C10.218018320312499,31.52139599609375,10.218018320312499,32.525385996093746,10.218018320312499,32.525385996093746C10.218018320312499,34.04937599609375,11.4580083203125,35.28939599609375,12.9820583203125,35.28939599609375C12.9820583203125,35.28939599609375,37.9289283203125,35.28939599609375,37.9289283203125,35.28939599609375C39.4530283203125,35.28939599609375,40.6930283203125,34.04937599609375,40.6930283203125,32.525385996093746C40.6930283203125,32.525385996093746,40.6930283203125,27.33737599609375,40.6930283203125,27.33737599609375C40.6930283203125,26.55337499609375,41.3280283203125,25.91839599609375,42.1119283203125,25.91839599609375C42.8969283203125,25.91839599609375,43.5320283203125,26.55337499609375,43.5320283203125,27.33737599609375C43.5320283203125,27.33737599609375,43.5320283203125,32.525385996093746,43.5320283203125,32.525385996093746C43.5320283203125,35.61538599609375,41.0179283203125,38.12839599609375,37.9289283203125,38.12839599609375C37.9289283203125,38.12839599609375,37.9289283203125,38.12839599609375,37.9289283203125,38.12839599609375Z" fill="#FFFFFF" fill-opacity="1"/></g></g><g><g><path d="M33.1829912109375,33.53939599609375C33.1829912109375,33.53939599609375,15.1860312109375,33.53939599609375,15.1860312109375,33.53939599609375C14.4010012109375,33.53939599609375,13.7659912109375,32.903385996093746,13.7659912109375,32.11938599609375C13.7659912109375,31.33538599609375,14.4010012109375,30.70037599609375,15.1860312109375,30.70037599609375C15.1860312109375,30.70037599609375,33.1829912109375,30.70037599609375,33.1829912109375,30.70037599609375C33.8639912109375,30.70037599609375,34.4179912109375,30.14639599609375,34.4179912109375,29.46539599609375C34.4179912109375,29.07437599609375,34.0999912109375,28.75738599609375,33.7099912109375,28.75738599609375C33.7099912109375,28.75738599609375,15.7469512109375,28.75738599609375,15.7469512109375,28.75738599609375C14.9630112109375,28.75738599609375,14.3280032109375,28.12237599609375,14.3280032109375,27.33737599609375C14.3280032109375,26.55337499609375,14.9630112109375,25.91839599609375,15.7469512109375,25.91839599609375C15.7469512109375,25.91839599609375,33.7099912109375,25.91839599609375,33.7099912109375,25.91839599609375C35.6659912109375,25.91839599609375,37.2569912109375,27.50936599609375,37.2569912109375,29.46539599609375C37.2569912109375,31.71139599609375,35.430091210937505,33.53939599609375,33.1829912109375,33.53939599609375C33.1829912109375,33.53939599609375,33.1829912109375,33.53939599609375,33.1829912109375,33.53939599609375Z" fill="#FFFFFF" fill-opacity="1"/></g></g></g></g></svg>