<svg xmlns="http://www.w3.org/2000/svg" xmlns:xlink="http://www.w3.org/1999/xlink" fill="none" version="1.1" width="48.5889892578125" height="53.02178955078125" viewBox="0 0 48.5889892578125 53.02178955078125"><defs><mask id="master_svg0_31_1413" style="mask-type:alpha" maskUnits="userSpaceOnUse"><g><rect x="0" y="0" width="48.58903884887695" height="53.02178955078125" rx="0" fill="#FFFFFF" fill-opacity="1"/></g></mask></defs><g><g><g mask="url(#master_svg0_31_1413)"><g><path d="M45.3208779296875,35.493828125C44.2388779296875,34.952828125,43.5618779296875,34.275828125,43.0208779296875,33.193828125C42.0738779296875,31.164828125,42.2098779296875,28.593828125,42.3448779296875,25.752828125C42.4798779296875,23.723828125,42.6158779296875,21.694828125,42.3448779296875,19.799828125C41.8038779296875,16.012828125,40.3147779296875,12.765828125,38.2858779296875,10.059828125C35.3097779296875,6.406858125,30.9808779296875,3.971858125,26.3808779296875,3.430848125C26.3808779296875,3.430848125,26.3808779296875,2.077818125,26.3808779296875,2.077818125C26.3808779296875,0.995849125,25.4338779296875,0.048828125,24.3517779296875,0.048828125C23.2688779296875,0.048828125,22.3228779296875,0.995849125,22.3228779296875,2.077818125C22.3228779296875,2.077818125,22.3228779296875,3.565858125,22.3228779296875,3.565858125C20.8338779296875,3.700868125,19.3457779296875,4.106808125,17.8578779296875,4.648868125C12.7168779296875,6.812868125,8.5228279296875,11.276828125,6.8998979296875,16.958828125C6.0878879296875,19.799828125,6.2228979296875,22.505828125,6.3588879296875,25.347828125C6.4938979296875,28.458828125,6.7639179296875,31.434828125,5.4118679296875,33.734828125C5.0058579296875,34.546828125,4.4648479296875,34.816828125,3.1118179296875,35.358828125C1.2178979296875,36.305828125,-0.0001220703125,38.199828125,-0.0001220703125,40.363828125C0.1348879296875,43.069828125,2.2998079296875,45.369828125,5.1408679296875,45.369828125C5.1408679296875,45.369828125,15.5578779296875,45.369828125,15.5578779296875,45.369828125C16.2348779296875,49.698828125,19.8868779296875,52.945828125,24.3517779296875,52.945828125C28.8158779296875,52.945828125,32.6038779296875,49.563828125,33.1448779296875,45.369828125C33.1448779296875,45.369828125,43.5618779296875,45.369828125,43.5618779296875,45.369828125C46.4028779296875,45.369828125,48.5678779296875,43.069828125,48.5678779296875,40.228828125C48.7028779296875,37.251828125,46.4028779296875,36.034828125,45.3208779296875,35.493828125C45.3208779296875,35.493828125,45.3208779296875,35.493828125,45.3208779296875,35.493828125C45.3208779296875,35.493828125,45.3208779296875,35.493828125,45.3208779296875,35.493828125ZM24.3517779296875,49.021828125C22.0518779296875,49.021828125,20.2928779296875,47.533828125,19.6167779296875,45.504828125C19.6167779296875,45.504828125,28.9507779296875,45.504828125,28.9507779296875,45.504828125C28.4098779296875,47.533828125,26.6518779296875,49.021828125,24.3517779296875,49.021828125C24.3517779296875,49.021828125,24.3517779296875,49.021828125,24.3517779296875,49.021828125C24.3517779296875,49.021828125,24.3517779296875,49.021828125,24.3517779296875,49.021828125ZM43.5618779296875,41.310828125C43.5618779296875,41.310828125,5.1408679296875,41.310828125,5.1408679296875,41.310828125C4.5998579296875,41.310828125,4.1938479296875,40.769828125,4.0588379296875,40.228828125C4.0588379296875,39.687828125,4.3288579296875,39.281828125,4.7348679296875,39.146828125C6.0878879296875,38.604828125,7.7119179296875,37.793828125,8.7938279296875,35.763828125C10.8228779296875,32.381828125,10.5528779296875,28.593828125,10.2818779296875,25.076828125C10.1468779296875,22.640828125,10.0108779296875,20.205828125,10.5528779296875,18.176828125C11.9048779296875,13.712828125,15.1518779296875,10.194828125,19.2107779296875,8.571838125C20.6988779296875,7.895808125,22.3228779296875,7.624818125,23.9458779296875,7.624818125C23.9458779296875,7.624818125,24.0807779296875,7.624818125,24.0807779296875,7.624818125C28.1398779296875,7.624818125,32.1978779296875,9.518858125,34.9037779296875,12.900828125C36.5278779296875,14.929828125,37.7448779296875,17.635828125,38.1508779296875,20.611828125C38.4208779296875,22.100828125,38.2858779296875,23.858828125,38.1508779296875,25.752828125C38.0158779296875,28.864828125,37.7448779296875,32.111828125,39.2328779296875,35.087828125C40.0448779296875,36.846828125,41.3977779296875,38.334828125,43.2918779296875,39.146828125C44.3738779296875,39.687828125,44.3738779296875,39.822828125,44.3738779296875,40.228828125C44.6448779296875,40.904828125,44.2388779296875,41.310828125,43.5618779296875,41.310828125C43.5618779296875,41.310828125,43.5618779296875,41.310828125,43.5618779296875,41.310828125C43.5618779296875,41.310828125,43.5618779296875,41.310828125,43.5618779296875,41.310828125Z" fill="#FFFFFF" fill-opacity="1"/></g></g></g></g></svg>