<svg xmlns="http://www.w3.org/2000/svg" xmlns:xlink="http://www.w3.org/1999/xlink" fill="none" version="1.1" width="52.3250732421875" height="47.24298095703125" viewBox="0 0 52.3250732421875 47.24298095703125"><g><g><g><path d="M44.162,2.94403C43.927,1.83002,42.694,0,40.9031,0C40.9031,0,38.079,0,38.079,0C37.1791,0,36.4501,0.658997,36.4501,1.47198C36.4501,1.47198,36.4501,1.47198,36.4501,1.47198C36.4501,2.28497,37.1791,2.94403,38.079,2.94403C38.079,2.94403,39.259,2.94403,39.259,2.94403C40.1691,2.94403,40.9031,3.60803,40.9031,4.42999C40.9031,4.42999,48.566,26.579,48.566,26.579C48.566,26.579,35.999,26.579,35.999,26.579C34.267,26.579,34.355,28.065,34.355,28.065C34.355,28.065,34.355,32.495,34.355,32.495C34.355,33.315,33.619,33.98,32.7111,33.98C32.7111,33.98,19.644,33.98,19.644,33.98C18.7361,33.98,18,33.315,18,32.495C18,32.495,18,28.065,18,28.065C18,28.065,18,26.579,16.3561,26.579C16.3561,26.579,3.70007,26.579,3.70007,26.579C3.70007,26.579,9.80701,4.42999,9.80701,4.42999C9.80701,3.60803,10.542,2.94403,11.452,2.94403C11.452,2.94403,14.246,2.94403,14.246,2.94403C15.146,2.94403,15.876,2.28497,15.876,1.47198C15.876,1.47198,15.876,1.47198,15.876,1.47198C15.876,0.658997,15.146,0,14.246,0C14.246,0,9.80701,0,9.80701,0C7.98706,0,6.84204,1.883,6.54797,2.94403C6.54797,2.94403,0,28.065,0,28.065C0,28.065,0,42.814,0,42.814C0,45.25,2.20703,47.243,4.90405,47.243C4.90405,47.243,47.421,47.243,47.421,47.243C50.118,47.243,52.3251,45.25,52.3251,42.814C52.3251,42.814,52.3251,28.065,52.3251,28.065C52.3251,28.065,44.162,2.94403,44.162,2.94403C44.162,2.94403,44.162,2.94403,44.162,2.94403ZM49.066,41.355C49.066,42.973,47.598,44.299,45.807,44.299C45.807,44.299,6.54797,44.299,6.54797,44.299C4.72803,44.299,3.28906,42.973,3.28906,41.355C3.28906,41.355,3.28906,29.55,3.28906,29.55C3.28906,29.55,14.741,29.55,14.741,29.55C14.741,29.55,14.741,33.98,14.741,33.98C14.741,35.599,16.209,36.925,18,36.925C18,36.925,34.355,36.925,34.355,36.925C36.176,36.925,37.614,35.599,37.614,33.98C37.614,33.98,37.614,29.55,37.614,29.55C37.614,29.55,49.066,29.55,49.066,29.55C49.066,29.55,49.066,41.355,49.066,41.355C49.066,41.355,49.066,41.355,49.066,41.355Z" fill="#FFFFFF" fill-opacity="1"/></g><g><path d="M16.572021878051757,15.78300244140625C16.572021878051757,15.78300244140625,24.968996878051758,24.18100244140625,24.968996878051758,24.18100244140625C25.61498687805176,24.82700244140625,26.671996878051758,24.82700244140625,27.34799687805176,24.18100244140625C27.34799687805176,24.18100244140625,35.745996878051756,15.78300244140625,35.745996878051756,15.78300244140625C36.39099687805176,15.13700244140625,36.39099687805176,14.08000244140625,35.745996878051756,13.40500244140625C35.099996878051755,12.75900244140625,34.04199687805176,12.75900244140625,33.367096878051754,13.40500244140625C33.367096878051754,13.40500244140625,27.84699687805176,18.92500244140625,27.84699687805176,18.92500244140625C27.84699687805176,18.92500244140625,27.84699687805176,2.86401244140625,27.84699687805176,2.86401244140625C27.84699687805176,1.92401144140625,27.08299687805176,1.19000244140625,26.172996878051755,1.19000244140625C25.23400687805176,1.19000244140625,24.499026878051758,1.95300244140625,24.499026878051758,2.86401244140625C24.499026878051758,2.86401244140625,24.499026878051758,18.95500244140625,24.499026878051758,18.95500244140625C24.499026878051758,18.95500244140625,18.950076878051757,13.40500244140625,18.950076878051757,13.40500244140625C18.627076878051756,13.08200244140625,18.187016878051757,12.90600244140625,17.775026878051758,12.90600244140625C17.335086878051758,12.90600244140625,16.924072878051756,13.08200244140625,16.601074878051758,13.40500244140625C15.926025878051759,14.05100244140625,15.926025878051759,15.13700244140625,16.572021878051757,15.78300244140625C16.572021878051757,15.78300244140625,16.572021878051757,15.78300244140625,16.572021878051757,15.78300244140625C16.572021878051757,15.78300244140625,16.572021878051757,15.78300244140625,16.572021878051757,15.78300244140625Z" fill="#FFFFFF" fill-opacity="1"/></g></g></g></svg>