<svg xmlns="http://www.w3.org/2000/svg" xmlns:xlink="http://www.w3.org/1999/xlink" fill="none" version="1.1" width="14.542724609375" height="16.957275390625" viewBox="0 0 14.542724609375 16.957275390625"><g><g><path d="M10.342005182495118,6.356232792358398L10.342005182495118,6.355292792358398Q10.343495182495118,5.419692792358399,9.824655182495118,4.640664792358399Q9.305695182495118,3.8614490923583986,8.440625182495117,3.5013877923583983Q7.575985182495117,3.1425947923583983,6.6574751824951175,3.3248477923583986Q5.7389551824951175,3.5071037923583983,5.0773231824951175,4.168733792358398Q4.414900182495117,4.831152792358399,4.232724182495117,5.749792792358399Q4.050487182495117,6.668742792358398,4.410237182495117,7.533052792358399Q4.769092482495117,8.397632792358397,5.5485071824951175,8.916512792358398Q6.327565182495118,9.435162792358398,7.262905182495118,9.4334227923584Q8.538085182495116,9.4334227923584,9.439945182495117,8.532032792358399Q10.341675182495116,7.630772792358398,10.342005182495118,6.356232792358398ZM8.992355182495118,5.194982792358399Q9.343195182495117,5.7217627923583985,9.342005182495118,6.3543627923583985L9.342005182495118,6.355292792358398Q9.342005182495118,7.216072792358398,8.733025182495117,7.824742792358398Q8.124025182495117,8.4334227923584,7.262905182495118,8.4334227923584Q6.629145182495117,8.434602792358397,6.102675182495117,8.084112792358399Q5.576203182495117,7.733622792358398,5.333838182495117,7.149702792358399Q5.0905141824951174,6.565102792358399,5.213622182495117,5.9443127923583985Q5.336729182495117,5.323542792358398,5.784425182495117,4.875842792358398Q6.231375182495118,4.428890792358398,6.852105182495118,4.305724792358398Q7.472975182495118,4.182529792358398,8.057355182495117,4.425022792358399Q8.641475182495117,4.668148792358398,8.992355182495118,5.194982792358399Z" fill-rule="evenodd" fill="#FFFFFF" fill-opacity="1"/></g><g><path d="M2.801227095890045,1.79464Q0.9389910958900451,3.61583,0.9079620958900452,6.22043L0.9079270958900452,6.22639Q0.9079270958900452,9.09174,3.7333170958900452,12.0714Q5.131637095890046,13.5461,6.690167095890045,14.5811L6.691367095890045,14.5819Q6.957497095890045,14.7542,7.267557095890045,14.7513Q7.569177095890045,14.7513,7.825607095890045,14.5845Q9.336847095890045,13.602,10.782257095890046,12.079Q13.613027095890045,9.09622,13.613027095890045,6.22639Q13.581927095890045,3.61746,11.721527095890044,1.79661Q9.861297095890045,-0.024128999999999956,7.258207095890045,0.00033600000000000296Q4.663417095890045,-0.02651099999999995,2.801227095890045,1.79464ZM1.9079280958900453,6.22935Q1.9094590958900453,8.69462,4.458957095890045,11.3833Q5.779277095890045,12.7757,7.243377095890045,13.748L7.2446070958900455,13.7488Q7.248627095890045,13.7514,7.258257095890045,13.7513Q7.272517095890045,13.7513,7.280287095890045,13.7462Q8.692787095890045,12.828,10.056907095890045,11.3906Q12.613027095890045,8.69724,12.613027095890045,6.22639Q12.586927095890045,4.042870000000001,11.022087095890045,2.51127Q9.457277095890046,0.979712,7.267607095890045,1.000292Q5.066807095890045,0.9777009999999999,3.5004070958900453,2.50958Q1.935062095890045,4.040430000000001,1.9079280958900453,6.22935Z" fill-rule="evenodd" fill="#FFFFFF" fill-opacity="1"/></g><g><path d="M1.052955078125,15.957344478149414L2.572620078125,12.722948478149414L1.667550078125,12.297700478149414L0.09454907812500002,15.645604478149414Q-0.11944392187499997,16.104494478149412,0.151242078125,16.530554478149412Q0.42239267812500003,16.957344478149416,0.927947078125,16.957344478149416L13.614980078125,16.957344478149416Q14.120980078125,16.957344478149416,14.391880078125,16.530234478149413Q14.662380078125,16.103664478149415,14.447780078125,15.645934478149414L12.874580078125,12.297700478149414L11.969580078125,12.722948478149414L13.489180078125,15.957344478149414L1.052955078125,15.957344478149414Z" fill-rule="evenodd" fill="#FFFFFF" fill-opacity="1"/></g></g></svg>