<svg xmlns="http://www.w3.org/2000/svg" xmlns:xlink="http://www.w3.org/1999/xlink" fill="none" version="1.1" width="21.253173828125" height="21.251953125" viewBox="0 0 21.253173828125 21.251953125"><g><g><g><g><path d="M17.7112,2.36108C17.7112,2.36108,16.53,2.36108,16.53,2.36108C16.53,2.36108,16.53,1.17993,16.53,1.17993C16.53,0.472168,16.0581,0,15.3491,0C14.6411,0,14.1692,0.472168,14.1692,1.17993C14.1692,1.17993,14.1692,2.36108,14.1692,2.36108C14.1692,2.36108,7.08423,2.36108,7.08423,2.36108C7.08423,2.36108,7.08423,1.17993,7.08423,1.17993C7.08423,0.472168,6.61206,0,5.90405,0C5.19507,0,4.72314,0.472168,4.72314,1.17993C4.72314,1.17993,4.72314,2.36108,4.72314,2.36108C4.72314,2.36108,3.54224,2.36108,3.54224,2.36108C1.53516,2.36108,0,3.896,0,5.90308C0,5.90308,0,17.71,0,17.71C0,19.718,1.53516,21.252,3.54224,21.252C3.54224,21.252,17.7112,21.252,17.7112,21.252C19.718,21.252,21.2532,19.718,21.2532,17.71C21.2532,17.71,21.2532,5.90308,21.2532,5.90308C21.2532,3.896,19.718,2.36108,17.7112,2.36108C17.7112,2.36108,17.7112,2.36108,17.7112,2.36108C17.7112,2.36108,17.7112,2.36108,17.7112,2.36108ZM18.8921,17.71C18.8921,18.4189,18.4192,18.8911,17.7112,18.8911C17.7112,18.8911,3.54224,18.8911,3.54224,18.8911C2.83423,18.8911,2.36206,18.4189,2.36206,17.71C2.36206,17.71,2.36206,10.626,2.36206,10.626C2.36206,10.626,18.8921,10.626,18.8921,10.626C18.8921,10.626,18.8921,17.71,18.8921,17.71C18.8921,17.71,18.8921,17.71,18.8921,17.71ZM2.36206,8.26514C2.36206,8.26514,2.36206,5.90308,2.36206,5.90308C2.36206,5.19507,2.83423,4.72314,3.54224,4.72314C3.54224,4.72314,4.72314,4.72314,4.72314,4.72314C4.72314,4.72314,4.72314,5.90308,4.72314,5.90308C4.72314,6.61206,5.19507,7.08398,5.90405,7.08398C6.61206,7.08398,7.08423,6.61206,7.08423,5.90308C7.08423,5.90308,7.08423,4.72314,7.08423,4.72314C7.08423,4.72314,14.1692,4.72314,14.1692,4.72314C14.1692,4.72314,14.1692,5.90308,14.1692,5.90308C14.1692,6.61206,14.6411,7.08398,15.3491,7.08398C16.0581,7.08398,16.53,6.61206,16.53,5.90308C16.53,5.90308,16.53,4.72314,16.53,4.72314C16.53,4.72314,17.7112,4.72314,17.7112,4.72314C18.4192,4.72314,18.8921,5.19507,18.8921,5.90308C18.8921,5.90308,18.8921,8.26514,18.8921,8.26514C18.8921,8.26514,2.36206,8.26514,2.36206,8.26514C2.36206,8.26514,2.36206,8.26514,2.36206,8.26514Z" fill="#FFAA00" fill-opacity="1"/></g></g><g><path d="M5.90405453125,15.349120546875C5.90405453125,15.349120546875,15.34914453125,15.349120546875,15.34914453125,15.349120546875C16.05814453125,15.349120546875,16.53004453125,14.876950546875,16.53004453125,14.167970546875C16.53004453125,13.459960546875,16.05814453125,12.987060546875,15.34914453125,12.987060546875C15.34914453125,12.987060546875,5.90405453125,12.987060546875,5.90405453125,12.987060546875C5.19506853125,12.987060546875,4.72314453125,13.459960546875,4.72314453125,14.167970546875C4.72314453125,14.876950546875,5.19506853125,15.349120546875,5.90405453125,15.349120546875C5.90405453125,15.349120546875,5.90405453125,15.349120546875,5.90405453125,15.349120546875C5.90405453125,15.349120546875,5.90405453125,15.349120546875,5.90405453125,15.349120546875Z" fill="#FFAA00" fill-opacity="1"/></g></g></g></svg>