<svg xmlns="http://www.w3.org/2000/svg" xmlns:xlink="http://www.w3.org/1999/xlink" fill="none" version="1.1" width="38.9810791015625" height="35.0009765625" viewBox="0 0 38.9810791015625 35.0009765625"><g><g><g><path d="M19.490135553894042,28.9944701171875C16.367095553894043,28.9944701171875,13.826075553894043,26.4534901171875,13.826075553894043,23.3309301171875C13.826075553894043,20.2078901171875,16.367095553894043,17.6668701171875,19.490135553894042,17.6668701171875C22.61318555389404,17.6668701171875,25.154075553894042,20.2078901171875,25.154075553894042,23.3309301171875C25.154075553894042,26.4534901171875,22.61318555389404,28.9944701171875,19.490135553894042,28.9944701171875C19.490135553894042,28.9944701171875,19.490135553894042,28.9944701171875,19.490135553894042,28.9944701171875ZM19.490135553894042,20.2244901171875C17.77712555389404,20.2244901171875,16.384185553894042,21.6175501171875,16.384185553894042,23.3309301171875C16.384185553894042,25.0438201171875,17.77712555389404,26.436890117187502,19.490135553894042,26.436890117187502C21.203155553894042,26.436890117187502,22.596095553894045,25.0438201171875,22.596095553894045,23.3309301171875C22.596095553894045,21.6175501171875,21.203155553894042,20.2244901171875,19.490135553894042,20.2244901171875C19.490135553894042,20.2244901171875,19.490135553894042,20.2244901171875,19.490135553894042,20.2244901171875Z" fill="#FFAA00" fill-opacity="1"/></g></g><g><g><path d="M30.7642,35.0009C30.7642,35.0009,8.21609,35.0009,8.21609,35.0009C6.40518,35.0009,4.93215,33.5267,4.93215,31.7157C4.93215,31.7157,4.93215,19.7118,4.93215,19.7118C4.93215,19.7118,3.51309,19.6757,3.51309,19.6757C1.99917,19.6757,0.699122,18.7518,0.201075,17.3217C-0.296849,15.8929,0.148097,14.3607,1.33511,13.4208C1.33511,13.4208,17.2881,0.770874,17.2881,0.770874C18.5861,-0.257446,20.3961,-0.25647,21.6922,0.770874C21.6922,0.770874,37.6461,13.4208,37.6461,13.4208C38.8322,14.3617,39.2781,15.8929,38.7802,17.3217C38.2812,18.7518,36.9811,19.6757,35.4671,19.6757C35.4671,19.6757,34.0841,19.6757,34.0841,19.6757C34.0841,19.6757,34.0491,31.7157,34.0491,31.7157C34.0491,33.5267,32.5751,35.0009,30.7642,35.0009C30.7642,35.0009,30.7642,35.0009,30.7642,35.0009ZM19.4901,2.56091C19.2741,2.56091,19.0581,2.63269,18.8781,2.77576C18.8781,2.77576,2.9241,15.4257,2.9241,15.4257C2.43313,15.8148,2.56411,16.3319,2.61611,16.4818C2.66909,16.6307,2.88711,17.1176,3.51309,17.1176C3.51309,17.1176,4.89614,17.1176,4.89614,17.1176C6.32608,17.1176,7.49014,18.2816,7.49014,19.7118C7.49014,19.7118,7.49014,31.7157,7.49014,31.7157C7.49014,32.1156,7.81607,32.4427,8.21609,32.4427C8.21609,32.4427,30.7642,32.4427,30.7642,32.4427C31.1652,32.4427,31.4911,32.1156,31.4911,31.7157C31.4911,31.7157,31.4911,19.7118,31.4911,19.7118C31.4911,18.2816,32.6541,17.1176,34.0841,17.1176C34.0841,17.1176,35.4671,17.1176,35.4671,17.1176C36.0932,17.1176,36.3122,16.6307,36.3642,16.4818C36.4162,16.3319,36.5481,15.8148,36.0572,15.4257C36.0572,15.4257,20.1021,2.77576,20.1021,2.77576C19.9221,2.63269,19.7061,2.56091,19.4901,2.56091C19.4901,2.56091,19.4901,2.56091,19.4901,2.56091Z" fill="#FFAA00" fill-opacity="1"/></g></g></g></svg>