<svg xmlns="http://www.w3.org/2000/svg" xmlns:xlink="http://www.w3.org/1999/xlink" fill="none" version="1.1" width="52.90771484375" height="49.9609375" viewBox="0 0 52.90771484375 49.9609375"><g><g><path d="M34.3848,49.9609C34.3848,49.9609,34.3838,49.9609,34.3838,49.9609C33.4219,49.9609,32.4868,49.563,31.8828,48.896C31.0591,47.9939,28.4507,45.647,26.3159,45.647C24.1958,45.647,21.5469,48.0081,20.7856,48.834C20.1841,49.49,19.2549,49.8811,18.3018,49.8811C17.8477,49.8811,17.4189,49.7939,17.0278,49.6221C17.0278,49.6221,16.96,49.592,16.96,49.592C16.96,49.592,10.4697,45.9631,10.4697,45.9631C10.4697,45.9631,10.4058,45.918,10.4058,45.918C9.22363,45.0911,8.7749,43.4729,9.35986,42.155C9.36475,42.145,9.95898,40.7739,9.95898,39.5239C9.95898,35.7319,6.87305,32.646,3.08008,32.646C3.08008,32.646,2.84961,32.646,2.84961,32.646C2.84961,32.646,2.80762,32.646,2.80762,32.646C1.72168,32.646,0.836914,31.6809,0.553711,30.187C0.530762,30.0669,0,27.2341,0,25.002C0,22.77,0.530762,19.936,0.553711,19.8159C0.839844,18.304,1.74365,17.332,2.84961,17.3579C2.84961,17.3579,3.08008,17.3579,3.08008,17.3579C6.87305,17.3579,9.95898,14.272,9.95898,10.479C9.95898,9.22998,9.36475,7.85913,9.35889,7.84497C8.77393,6.52905,9.22705,4.91113,10.4131,4.08691C10.4131,4.08691,10.48,4.04004,10.48,4.04004C10.48,4.04004,17.3286,0.278076,17.3286,0.278076C17.3286,0.278076,17.3999,0.248047,17.3999,0.248047C17.7856,0.0839844,18.209,0,18.6558,0C19.6069,0,20.5381,0.383057,21.146,1.02393C21.957,1.87305,24.519,4.08008,26.5928,4.08008C28.647,4.08008,31.1938,1.91699,32.002,1.08301C32.606,0.455078,33.5298,0.078125,34.4717,0.078125C34.9277,0.078125,35.3589,0.165039,35.75,0.334961C35.75,0.334961,35.8198,0.365967,35.8198,0.365967C35.8198,0.365967,42.4351,4.04004,42.4351,4.04004C42.4351,4.04004,42.5,4.08594,42.5,4.08594C43.6826,4.91211,44.1338,6.53003,43.5479,7.8479C43.5439,7.85913,42.9497,9.229,42.9497,10.479C42.9497,14.272,46.0356,17.3579,49.8286,17.3579C49.8286,17.3579,50.0591,17.3579,50.0591,17.3579C51.1631,17.334,52.0679,18.304,52.354,19.8159C52.377,19.936,52.9077,22.769,52.9077,25.002C52.9077,27.2341,52.377,30.0681,52.354,30.187C52.0679,31.7,51.1631,32.668,50.0591,32.646C50.0591,32.646,49.8286,32.646,49.8286,32.646C46.0356,32.646,42.9497,35.7319,42.9497,39.5249C42.9497,40.7739,43.5439,42.144,43.5498,42.158C44.1338,43.4741,43.6826,45.092,42.498,45.917C42.498,45.917,42.4316,45.9631,42.4316,45.9631C42.4316,45.9631,35.7051,49.6809,35.7051,49.6809C35.7051,49.6809,35.6348,49.7109,35.6348,49.7109C35.251,49.877,34.8301,49.9609,34.3848,49.9609C34.3848,49.9609,34.3848,49.9609,34.3848,49.9609C34.3848,49.9609,34.3848,49.9609,34.3848,49.9609ZM34.1807,46.792C34.2109,46.812,34.2959,46.845,34.3848,46.845C34.3848,46.845,34.395,46.845,34.395,46.845C34.395,46.845,40.6797,43.3721,40.6797,43.3721C40.5278,43.019,39.834,41.3091,39.834,39.5249C39.834,34.1899,44.0356,29.8169,49.3047,29.543C49.3809,29.125,49.792,26.769,49.792,25.002C49.792,23.2351,49.3809,20.8801,49.3047,20.4609C44.0356,20.187,39.834,15.814,39.834,10.479C39.834,8.69312,40.5298,6.97998,40.6797,6.63013C40.6797,6.63013,34.498,3.19604,34.498,3.19604C34.498,3.19604,34.4717,3.19507,34.4717,3.19507C34.3667,3.19507,34.2681,3.23291,34.2349,3.25513C34.1318,3.36206,33.2349,4.27002,31.9478,5.17603C30.043,6.51709,28.2407,7.19604,26.5928,7.19604C24.9277,7.19604,23.1118,6.50293,21.1938,5.13599C19.8989,4.21313,18.999,3.28711,18.895,3.17798C18.8618,3.15601,18.7617,3.11694,18.6558,3.11694C18.6558,3.11694,18.6338,3.11694,18.6338,3.11694C18.6338,3.11694,12.23,6.63403,12.23,6.63403C12.3838,6.99097,13.0747,8.69897,13.0747,10.479C13.0747,15.814,8.87207,20.187,3.604,20.4609C3.52783,20.8801,3.1167,23.2351,3.1167,25.002C3.1167,26.769,3.52783,29.123,3.604,29.543C8.87207,29.8169,13.0747,34.189,13.0747,39.5249C13.0747,41.3149,12.376,43.03,12.2271,43.375C12.2271,43.375,18.2881,46.7639,18.2881,46.7639C18.2881,46.7639,18.3018,46.7649,18.3018,46.7649C18.3896,46.7649,18.4736,46.7319,18.5039,46.7131C18.6177,46.592,19.5229,45.6331,20.8267,44.678C22.77,43.2529,24.6167,42.531,26.3159,42.531C28.0308,42.531,29.8916,43.2671,31.8467,44.718C33.1577,45.6919,34.0669,46.6689,34.1807,46.792C34.1807,46.792,34.1807,46.792,34.1807,46.792C34.1807,46.792,34.1807,46.792,34.1807,46.792ZM26.3379,34.1279C21.2866,34.1279,17.1777,30.019,17.1777,24.967C17.1777,19.916,21.2866,15.8059,26.3379,15.8059C31.3896,15.8059,35.5,19.916,35.5,24.967C35.5,30.019,31.3896,34.1279,26.3379,34.1279C26.3379,34.1279,26.3379,34.1279,26.3379,34.1279C26.3379,34.1279,26.3379,34.1279,26.3379,34.1279ZM26.3379,18.9221C23.0049,18.9221,20.293,21.634,20.293,24.967C20.293,28.3,23.0049,31.0129,26.3379,31.0129C29.6709,31.0129,32.3838,28.3,32.3838,24.967C32.3838,21.634,29.6719,18.9221,26.3379,18.9221C26.3379,18.9221,26.3379,18.9221,26.3379,18.9221C26.3379,18.9221,26.3379,18.9221,26.3379,18.9221Z" fill="#66421E" fill-opacity="1"/></g></g></svg>