<svg xmlns="http://www.w3.org/2000/svg" xmlns:xlink="http://www.w3.org/1999/xlink" fill="none" version="1.1" width="21.253173828125" height="21.2529296875" viewBox="0 0 21.253173828125 21.2529296875"><g><path d="M10.626,0C16.4951,0,21.2532,4.75806,21.2532,10.627C21.2532,16.4951,16.4951,21.2529,10.626,21.2529C4.75806,21.2529,0,16.4951,0,10.627C0,4.75806,4.75806,0,10.626,0ZM10.626,2.125C5.93115,2.125,2.125,5.93213,2.125,10.627C2.125,15.322,5.93115,19.1279,10.626,19.1279C15.321,19.1279,19.1272,15.322,19.1272,10.627C19.1272,5.93213,15.321,2.125,10.626,2.125ZM9.56421,5.31299C10.0771,5.31299,10.5171,5.67993,10.6091,6.18506C10.6091,6.18506,10.626,6.37598,10.626,6.37598C10.626,6.37598,10.626,10.627,10.626,10.627C10.626,10.627,13.8142,10.627,13.8142,10.627C14.4011,10.625,14.8782,11.1001,14.8792,11.687C14.8801,12.2021,14.5122,12.6431,14.0061,12.7351C14.0061,12.7351,13.8142,12.752,13.8142,12.752C13.8142,12.752,9.56421,12.752,9.56421,12.752C9.05103,12.752,8.61108,12.385,8.51807,11.8801C8.51807,11.8801,8.50098,11.689,8.50098,11.689C8.50098,11.689,8.50098,6.37598,8.50098,6.37598C8.50098,5.78906,8.97705,5.31299,9.56421,5.31299Z" fill="#FFAA00" fill-opacity="1"/></g></svg>